<?xml version="1.0" encoding="utf-8"?>
<!-- Generator: Adobe Illustrator 26.1.0, SVG Export Plug-In . SVG Version: 6.00 Build 0)  -->
<svg version="1.1" id="Laag_1" xmlns="http://www.w3.org/2000/svg" xmlns:xlink="http://www.w3.org/1999/xlink" x="0px" y="0px"
	 viewBox="0 0 865.8 721.6" style="enable-background:new 0 0 865.8 721.6;" xml:space="preserve">
<style type="text/css">
	.st0{fill:#FFFFFF;}
</style>
<g>
	<path class="st0" d="M843.8,108.2c-2,0-4,0-5.9,0c-38.6,0-77.2-0.1-115.8,0.1c-5.7,0-8.4-1.7-10.8-6.8
		c-5.6-12.2-11.7-24.3-18.1-36.2c-10.4-19.2-26.8-29.1-48.7-29.4c-14.9-0.2-29.9-0.8-44.8,0.1c-25.1,1.6-48.9-2.8-72.5-11.6
		c-35.9-13.4-72.8-24-111.6-24.1C295.8,0.1,176,0.1,56.3,0C46.9,0,37.9,1.7,29.4,6C12.8,14.5,4.6,28.9,0,46.1
		c0,53.5,0,107.1,0,160.7c13.6,36.5,27.1,45.7,66.9,45.7c22.3,0,44.5,0.2,66.8-0.1c5.9-0.1,7.6,1.2,6.6,7.3
		c-10.2,64.8-20.2,129.6-30,194.4c-0.6,4.2-2.7,6.4-5.7,8.6c-19,14.1-37.7,28.5-56.8,42.5c-8.2,6-12,13.4-11.9,23.6
		c0.2,44.5,0.5,89.1,0,133.6c-0.4,36.7,26.2,59.5,59.1,59.3c93-0.7,186-0.7,279,0c36.1,0.3,59.8-26.2,59.2-59.1
		c-0.8-44.5-0.4-89.1-0.1-133.6c0.1-12.3-4.6-19.9-16.1-24.6c-34-14.1-67.6-29.1-101.5-43.2c-5.6-2.3-6.9-5-5.9-10.6
		c3.7-22.2,6.9-44.5,10.3-66.8c0.5-3,1-5,5-5.1c11-0.5,16.1-7.6,18.5-17.6c2.6-11,5.5-21.8,8.2-32.7c2.7-10.9,5.6-21.8,8.1-32.7
		c3-12.9-3.4-24.2-14.9-24.2c-7.5,0-6.8-2.8-6.5-8.2c0.5-8,3-11.6,12-10.9c12.6,1,25.3,0.1,38,0.3c22.6,0.2,45-0.8,67.4-4.5
		c31.8-5.3,61.8-16.8,92.1-26.9c9.2-3.1,18.3-4.9,28-4.7c22,0.4,44,0.2,65.9,0.1c24.6,0,42.5-10.8,53.4-33.1
		c5.3-10.8,11.2-21.4,16-32.5c2.5-5.6,5.7-6.9,11.5-6.9c40.3,0.2,80.6,0.2,120.9,0.1c13.7,0,22.1-6.9,22.3-17.8
		C865.9,115.4,857.4,108.4,843.8,108.2z M397.1,549.5c-0.3,37.5-0.1,74.9-0.2,112.4c0,16.9-6.7,23.5-23.5,23.5
		c-92.7,0-185.4,0-278,0c-16.8,0-23.1-6.2-23.2-22.8c-0.1-38,0.1-76.1-0.2-114.1c0-5.9,1.4-7.5,7.4-7.4
		c51.5,0.2,103.1,0.1,154.7,0.1c51.6,0,103.1,0.1,154.7-0.2C395.6,541,397.2,542.9,397.1,549.5z M322.5,503.1
		c-0.1,0.4-0.1,0.9-0.2,1.3H109.2c8.6-6.5,15.7-12.3,23.3-17.4c7.9-5.3,11.5-12.5,12.8-21.7c10.2-67.6,20.7-135.2,30.8-202.8
		c1.1-7.5,3.2-10.4,11.7-10.3c36.1,0.7,72.1,0.5,108.2,0.1c7-0.1,7.6,2,6.7,8c-10.5,67-20.7,134.1-31.1,201.1
		c-2.2,13.9,1.1,20.3,14,25.9C297.8,492.6,310.2,497.8,322.5,503.1z M541.3,177.6c0.1,5.6-1.2,8.5-6.9,10.2
		c-28.2,8.5-55.6,19.7-84.9,24.6c-17,2.8-34.1,4-51.3,4c-52.1,0.1-104.3,0-156.4,0H61.7c-19.7,0-25.8-6-25.8-25.6
		c0-43.4,0-86.8,0-130.2c0-18.5,6.3-24.8,24.8-24.8c104,0,208,0.9,312-0.4c51.1-0.6,100.3,6.1,148,24.5c6.5,2.5,16,2.8,19.1,7.4
		c3.5,5.1,1.3,14.1,1.3,21.4C541.2,118.4,541,148,541.3,177.6z M681,131c-6.2,11.9-12.3,24-18.1,36.1c-4.2,8.8-10.6,13.2-20.6,13
		c-19.7-0.3-39.5-0.2-59.2,0c-4.9,0.1-6.2-1.5-6.1-6.2c0.3-16,0.1-32.1,0.1-48.2c0-15.8,0.2-31.6-0.1-47.3c-0.1-5.2,1.4-6.8,6.6-6.7
		c19.4,0.3,38.9,0.2,58.3,0.1c9.7,0,16.6,4,20.8,12.9c5.8,12.2,11.8,24.2,18,36.2C682.7,124.5,682.9,127.4,681,131z"/>
	<path class="st0" d="M144.6,108.2c-16.6,0-33.2,0-49.8,0c-7.9,0-15.1-1.4-19.7-8.9C68.9,89.3,74,76,85.5,73.1
		C89,72.3,92.7,72,96.3,72c32.1-0.1,64.2,0,96.3-0.1c4.6,0,9.2,0.1,13.2,2c7.1,3.5,11.1,9.7,10.2,17.8c-0.9,7.8-5.1,13.7-13.3,15.4
		c-3.5,0.8-7.2,1.1-10.9,1.1C176.1,108.3,160.4,108.2,144.6,108.2z"/>
	<path class="st0" d="M144.5,180c-18.3,0-36.6,0.1-54.9-0.1c-7.9-0.1-13.4-4.4-16.1-11.5c-2.4-6.4-1.3-12.8,3.4-18.1
		c3.8-4.2,8.8-6.1,14.3-6.1c35.2-0.1,70.4-0.2,105.6,0c11.6,0.1,19.5,7.8,19.5,18c0,10.1-7.9,17.6-19.5,17.8
		c-17.4,0.3-34.9,0.1-52.3,0.1C144.5,180.1,144.5,180,144.5,180z"/>
</g>
</svg>
