<?xml version="1.0" encoding="utf-8"?>
<!-- Generator: Adobe Illustrator 26.1.0, SVG Export Plug-In . SVG Version: 6.00 Build 0)  -->
<svg version="1.1" id="Laag_1" xmlns="http://www.w3.org/2000/svg" xmlns:xlink="http://www.w3.org/1999/xlink" x="0px" y="0px"
	 viewBox="0 0 878.3 830.2" style="enable-background:new 0 0 878.3 830.2;" xml:space="preserve">
<style type="text/css">
	.st0{fill:#FFFFFF;}
</style>
<g>
	<path class="st0" d="M863.9,277.7c-16.3-16.5-32.7-32.9-49.2-49.2c-9.2-9.1-15-9.4-25-1.7c-12.4,9.6-26.7,9.2-36.9-1
		c-10.3-10.4-11-24.7-1.5-36.9c7.9-10.2,7.7-16.1-1.2-25C711,124.7,672.2,85.2,632.6,46.6C570.7-13.8,475.2-15.8,411,42.2
		c-22.4,20.3-43.1,42.6-64.6,64c-5.7,5.7-7.2,12.3-2.6,19.2c4.5,6.8,10.8,8.4,18.6,5.5c13.9-5.3,28.2-8.9,43-10.6
		c43.2-4.9,82.3,3.8,114.9,34.3c15.2,14.2,15.4,29.2,0.6,44.1c-17.6,17.8-35.4,35.4-53.1,53.2c-10.8,10.8-10.8,17.3,0,28.2
		c0.2,0.2,0.5,0.5,0.8,0.8c-28.3,28.3-91.5,91.5-117.4,117.3c-2.1,2.1-3.4,5.6-8.2,3.7c-21.8-8.5-39-1.2-55,14.8
		c-79.7,80.3-159.9,160.2-239.9,240.2c-8.5,8.5-17.2,16.9-25.4,25.8C8.5,698.2,1,716.9,0.1,737.9c-1.6,37,19.2,69.9,53.1,84.8
		c33.2,14.6,71.2,7.5,98.2-19.4c88.9-88.6,177.6-177.5,266.3-266.3c13.7-13.8,17.6-30.1,10.9-48.5c-1.3-3.6-1.3-5.9,1.7-8.8
		c38.4-38.2,76.6-76.5,114.8-114.8c2.5-2.5,4-3.4,7.5-0.6c9.6,7.8,15.5,7.3,24.1-1.2c9.1-8.9,17.8-18.1,27-26.8
		c11.5-11,26.2-11.5,37.5-1.5c11.1,9.9,12.3,25.1,2.9,37.5c-8.5,11.1-8.2,16.3,1.8,26.3c16.2,16.2,32.3,32.4,48.6,48.5
		c19.3,19.1,45.9,19.3,65.3,0.1c35-34.6,69.7-69.3,104.3-104.3C883.2,323.7,883,297,863.9,277.7z M493.4,298.1
		c0.3-0.2,0.4-0.4,0.5-0.5c-0.2,0.2-0.9,1-1.5,1.5C492.8,298.8,493.1,298.5,493.4,298.1z M395.4,517.4
		C307.2,605.7,218.8,694,130.6,782.3c-11.7,11.7-25.6,18-36.5,18.2c-29.3,0.1-51.4-14.2-60.1-36.2c-9.4-23.9-5.1-45.8,13-64
		c58.4-58.8,117.1-117.2,175.6-175.8c29.5-29.5,59-59,88.5-88.5c11.6-11.6,17.6-11.5,29.4,0.2c18.4,18.3,36.8,36.7,55.1,55.1
		C405.2,501.1,405.2,507.6,395.4,517.4z M523.9,344.5c-37.8,37.4-75.4,75.1-112.8,112.8c-3.3,3.3-4.9,2.7-7.8-0.2
		c-11.3-11.4-22.9-22.6-34.8-34.3c26.5-26.4,91.9-91.7,121.2-121c11.1,11.1,22.2,22.2,33.4,33.3
		C526.2,338.3,528.3,340.2,523.9,344.5z M585.4,312.9c-6.2,5.5-12,11.6-17.8,17.6c-2.8,2.9-4.6,2.9-7.5,0
		c-20-20.2-40-40.4-60.3-60.3c-3.9-3.8-2.6-5.7,0.5-8.8c13.9-13.6,27.7-27.4,41.4-41.2c26.9-27.1,26.1-62.3-2-87.9
		c-30-27.3-65.4-41.3-105.8-42.7c-9-0.3-17.9,0-26.5,0c8.6-9.1,16.9-19.7,26.8-28.2c50.7-43.7,126.4-42.1,174.7,4.2
		c37,35.5,72.7,72.4,109,108.7c2.1,2.1,4.1,3.6,2.6,7.7c-12.9,37.5-2,62.7,33.9,79.1c-25.8,25.8-51.4,51.3-77.1,77
		c-0.7-1.7-1.6-3.6-2.4-5.5C659.6,296.7,614.7,286.9,585.4,312.9z M843.4,321.7c-35,35-69.9,70-104.9,104.9
		c-7.4,7.3-15.3,7.1-22.8-0.2c-12.6-12.3-24.8-25-37.5-37.2c-3.6-3.5-3.3-5.4,0.1-8.8c39.7-39.5,79.2-79,118.6-118.7
		c3.4-3.4,5.2-3.8,8.8-0.2c12.2,12.7,24.8,25,37.3,37.4c3.2,3.2,5.5,6.7,5.4,11.1C848.7,314.9,846.6,318.6,843.4,321.7z"/>
</g>
</svg>
