<?xml version="1.0" encoding="utf-8"?>
<!-- Generator: Adobe Illustrator 26.1.0, SVG Export Plug-In . SVG Version: 6.00 Build 0)  -->
<svg version="1.1" id="Laag_1" xmlns="http://www.w3.org/2000/svg" xmlns:xlink="http://www.w3.org/1999/xlink" x="0px" y="0px"
	 viewBox="0 0 1323.6 987.8" style="enable-background:new 0 0 1323.6 987.8;" xml:space="preserve">
<style type="text/css">
	.st0{fill:#8F8F8F;}
	.st1{fill:#FFFFFF;}
	.st2{fill:#FEFEFE;}
</style>
<g>
	<path class="st0" d="M1323.6,962.8l-0.9,0.8l-1.1-0.5c-5.4-4.5-4.7-10.8-4.7-16.7c-0.2-99.3-0.2-198.7,0-298
		c0-5.9-0.7-12.2,4.7-16.7c0.8-0.7,1.5-0.6,2.1,0.3C1323.6,742.2,1323.6,852.5,1323.6,962.8z"/>
	<path class="st1" d="M566.9,272.6c-63.1-52.2-168.6-51.5-232,1.1c-38.4,31.9-38.4,81.3,0,113.5c57.7,48.3,157.3,53.5,219.7,10.8
		c23.8-16.3,42.1-36.8,42.9-66.7C596.7,305.7,584.7,287.3,566.9,272.6z M566.9,272.6c-63.1-52.2-168.6-51.5-232,1.1
		c-38.4,31.9-38.4,81.3,0,113.5c57.7,48.3,157.3,53.5,219.7,10.8c23.8-16.3,42.1-36.8,42.9-66.7
		C596.7,305.7,584.7,287.3,566.9,272.6z M1321.1,835.4c0-67.9,0.3-135.9,0.5-203.8c-3.9-18.3-12.5-24.4-34.8-24.4
		c-123.2,0-246.3-0.2-369.5,0.2c-11.2,0-15.1-2-15-14.4c0.6-83.1-0.6-166.2,0.6-249.3c1.3-93.9-38.7-167.7-108.3-227
		C708.5,43.4,606,10.3,495.2,1.8C408.4-4.7,323.3,6,241.7,37.5C158,69.9,86,118.1,37.6,195.9c-23.4,37.7-37.8,78.5-37.5,124
		C0.8,434.5,1,549,0,663.6c-0.5,54.5,17.9,101.9,48.7,145.2C97.2,876.9,164.4,920.3,241.4,950c70.8,27.3,144.5,37.7,220,37.7
		c273.9,0.1,547.8,0.1,821.7,0c4.7,0,9.5,0,14.1-0.7c14.8-2.2,21.1-8.6,24.4-24C1321.4,920.5,1321.1,878,1321.1,835.4z M850.8,601.2
		c0,5.7-2.8,6-7.2,6c-46.9-0.1-93.8,0-141.3-1.2c57.4-29.2,106.6-68.2,148.4-122C850.7,525.7,850.6,563.5,850.8,601.2z M87.7,217.2
		C131.3,153,193,113.4,263.9,86.4c60.6-23,123.7-32.4,191.4-33C550.7,55,644.1,75.9,727.4,131c49.8,32.9,89.9,74.5,110.7,132
		c23,63.7,14,123.9-22.1,179.8c-42.6,66-105.5,106.4-177.9,132.2c-124,44.1-248.8,44.2-372.7,0.1C193,549.2,130.9,508.4,87.1,443.1
		C41.8,375.6,42.1,284.6,87.7,217.2z M1269.4,922c0.1,10.3-2.7,13.4-12.7,12.5c-9.4-0.9-19-1-28.4,0c-11.4,1.3-13.2-3.3-13-13.6
		c0.6-39.2,0.4-78.4,0.2-117.6c-0.1-16.6-8.1-27.1-21.4-29.3c-17.5-2.9-30.7,8.1-31.1,27.2c-0.6,28-0.2,56-0.2,84
		c0,13.8-0.3,27.6,0.1,41.4c0.2,6.3-2,8.1-8.1,8c-30.1-0.3-60.3-0.3-90.4,0c-7.2,0.1-8.5-2.7-8.4-9c0.3-20.2,0.4-40.5,0-60.7
		c-0.3-16.3-7.8-26.2-20.5-28.8c-17.9-3.7-31.8,7.7-32.2,27.2c-0.5,20.7-0.4,41.4,0,62c0.2,7.2-1.8,9.5-9.2,9.4
		c-29.3-0.4-58.6-0.5-87.9,0.1c-8.5,0.2-9.8-2.9-9.6-10.3c0.5-19.4,0.4-38.8,0.1-58.1c-0.3-18-8.8-28.8-23.2-30.6
		c-17.3-2.1-29.7,9.2-30.2,28.5c-0.5,20.2-0.6,40.5,0.1,60.7c0.3,8.4-2.5,9.8-10.1,9.7c-28.8-0.5-57.7-0.5-86.6,0
		c-8,0.1-10-1.9-9.9-9.9c0.5-40.1,0.3-80.1,0.1-120.2c-0.1-18.3-9.3-29.7-24.3-30.9c-13.7-1.1-24.4,6.4-27.4,19.9
		c-1.2,5.4-1.7,11-1.7,16.6c-0.1,37.9-0.3,75.8,0.1,113.7c0.1,8.1-1.6,11-10.4,10.8c-27.1-0.6-54.3-0.5-81.4,0
		c-7.6,0.1-10.4-1.4-10.1-9.7c0.7-20.2,0.4-40.5,0.2-60.7c-0.1-12.1-4.9-22.2-16.4-26.9c-9.6-4-19.6-2.8-27.8,4.5
		c-7.7,6.8-9.3,16.1-9.3,25.8c0,19-0.3,37.9,0.2,56.9c0.2,7.4-1,10.5-9.6,10.3c-29.3-0.6-58.6-0.5-87.9-0.1
		c-7.4,0.1-9.4-2.1-9.2-9.4c0.5-19.8,0.3-39.6,0.1-59.4c-0.2-18.9-10-30.2-26-30.5c-16-0.3-26.5,10.7-27,29.5
		c-0.5,18.1-0.4,36.2,0,54.3c0.2,7.3-2.3,8.8-9,7.6c-104.4-19.1-197.9-58.4-264-146.3c-26.8-35.6-41.4-76.1-41.6-121
		C53.9,604.2,54,549.1,54,494c0-1.5,0.3-3,0.8-6.6c24.2,30.8,50.5,56.4,80.7,78c71.3,50.8,151.3,78.2,237.4,89.9
		c35.1,4.8,70.3,5.3,105.7,5.3c258.9-0.1,517.7,0,776.6-0.3c10.9,0,14.3,1.9,14.2,13.7C1268.8,756.6,1268.9,839.3,1269.4,922z
		 M334.9,387.1c57.7,48.3,157.3,53.5,219.7,10.8c23.8-16.3,42.1-36.8,42.9-66.7c-0.8-25.5-12.8-43.9-30.6-58.6
		c-63.1-52.2-168.6-51.5-232,1.1C296.6,305.5,296.6,355,334.9,387.1z"/>
	<path class="st2" d="M597.5,331.2c-0.8,29.9-19.2,50.4-42.9,66.7c-62.3,42.7-162,37.6-219.7-10.8c-38.4-32.1-38.3-81.6,0-113.5
		c63.3-52.6,168.8-53.2,232-1.1C584.7,287.3,596.7,305.7,597.5,331.2z"/>
	<path class="st1" d="M598.1,229.4c-42.1-34.2-91.6-47.6-146.9-48.6c-48.3,0.4-95.1,12.2-136.7,41.3
		c-78.8,55.2-82.6,149.4-8.4,210.3c77.8,63.9,212.9,63.6,291.7-0.7C667.9,374.6,668.2,286.2,598.1,229.4z M554.6,397.9
		c-62.3,42.7-162,37.6-219.7-10.8c-38.4-32.1-38.3-81.6,0-113.5c63.3-52.6,168.8-53.2,232-1.1c17.8,14.7,29.8,33.1,30.6,58.6
		C596.7,361.1,578.3,381.6,554.6,397.9z"/>
</g>
</svg>
