<?xml version="1.0" encoding="utf-8"?>
<!-- Generator: Adobe Illustrator 26.1.0, SVG Export Plug-In . SVG Version: 6.00 Build 0)  -->
<svg version="1.1" id="Laag_1" xmlns="http://www.w3.org/2000/svg" xmlns:xlink="http://www.w3.org/1999/xlink" x="0px" y="0px"
	 viewBox="0 0 929.3 943.1" style="enable-background:new 0 0 929.3 943.1;" xml:space="preserve">
<style type="text/css">
	.st0{fill:#FFFFFF;stroke:#FFFFFF;stroke-width:11;}
	.st1{fill:#FFFFFF;stroke:#FFFFFF;stroke-miterlimit:10;}
</style>
<g>
	<path class="st0" d="M893.8,173.7c-12-35.2-45.3-42.6-71.8-16.3c-28.4,28.3-56.9,56.6-85,85.2c-5.1,5.2-7.7,4.6-12.3-0.2
		c-10.6-11.3-21.5-22.2-32.8-32.8c-5.6-5.2-6.4-8.2-0.3-14.2c30.8-30.1,61.2-60.6,91.5-91.2c25.2-25.5,17.5-60.1-16.2-72.3
		c-34.6-12.5-70.1-16.7-106.8-13C565.9,28.4,483,97.2,458.5,189c-9.5,35.5-15.4,71.9-23.5,107.7c-10.7,47.3-32.2,87.7-67.7,122.4
		C258.5,525.5,151.7,633.8,44,741.3c-27,27-38.4,59-33.4,97c6.1,45.8,47.6,86.6,92.4,90.4c2.9,1.6,6.4-0.6,9.3,1.5H132
		c0.6-0.5,1.2-1.3,1.9-1.4c25.5-3.3,46.3-15.3,64.3-33.3c111.7-111.8,223.6-223.5,335.2-335.4c17.7-17.8,38.1-30.8,61.2-40.2
		c40.4-16.4,83.1-23.8,125.7-31.5c49.8-9.1,93.5-29.4,130.1-64.7c9.9-9.5,15.1-20.6,12.5-34.3c-0.9-4.8,1.1-7.8,3.5-11.3
		C908.9,314.4,918.6,246.3,893.8,173.7z M821.9,401.7c-32.3,29.7-70.9,45.1-113.7,52.8c-44,7.9-88.1,16-129.7,33.4
		c-26.3,11-49.6,26.2-69.8,46.5C397,646.4,285.1,758,173.5,869.9c-15.4,15.5-33.3,24.4-58.1,24.9c-27.6-1.6-50.9-14.9-63.6-43
		c-12.8-28.3-8.3-55,11.6-78.8c2.7-3.2,5.7-6.1,8.6-9c106.5-106.5,212.3-213.8,320-319.2c39.5-38.7,64-83.8,77-136.5
		c8.8-35.7,13.7-72.3,23.1-107.8C521.9,88.3,645,24.9,753.8,65.2c10.4,3.8,11.1,6.8,3.3,14.7c-35.3,35.3-70.6,70.6-105.9,105.9
		c-12.5,12.5-12.6,20.6-0.1,33.1c56.9,57,113.8,114,170.9,170.7C827.1,394.5,827,397,821.9,401.7z M842.4,350.1
		c-2.9,4.7-4.4,5.5-8.7,1.1c-24.1-24.5-48.4-48.9-73-73c-4.1-4-3.5-5.9,0.2-9.5c28.9-28.6,57.5-57.4,86.3-86.1
		c7.5-7.5,9.5-7.1,13.1,2.9c7.5,20.5,10.8,41.8,11.3,62.8C871,285.3,861.7,319.1,842.4,350.1z"/>
	<path class="st1" d="M103.1,928.8c3.3-0.6,6.5-1,9.3,1.5c-3,0-5.9,0-8.9,0C103.3,929.8,103.2,929.3,103.1,928.8z"/>
	<path class="st1" d="M479.8,478.3c0.3,6.5-4.3,11.1-9,15.8c-56.1,56.1-112.2,112.2-168.3,168.3c-36.8,36.8-73.5,73.5-110.3,110.3
		c-2.1,2.1-4.2,4.3-6.5,6c-7.5,5.6-17.1,4.9-23.5-1.6c-6.4-6.6-7-16-1.1-23.5c1.6-2.1,3.6-3.9,5.5-5.8
		c92.8-92.9,185.7-185.7,278.5-278.5c2.3-2.3,4.6-4.7,7.3-6.5c5.9-4.1,12.3-4.2,18.5-0.7C476.8,465.4,479.8,470.6,479.8,478.3z"/>
	<path class="st1" d="M692.5,310.9c-23.1-23.5-46.4-46.8-69.8-69.9c-8.6-8.5-18.1-8.4-26.7,0.1c-16.5,16.2-32.9,32.5-49.1,49.1
		c-7.8,8-7.8,18.1,0.1,26.1c23.1,23.5,46.5,46.6,69.8,69.9c3.7,3.7,8,6.1,13.3,5.8c5.2,0.2,9.3-1.8,12.8-5.3
		c16.6-16.5,33.3-33,49.7-49.7C700.7,328.7,700.7,319.2,692.5,310.9z M651.7,327.9c-7.2,7-13.9,14.4-21.3,22.2
		c-14.8-15-28.6-29.1-42.6-43.1c-2.4-2.4-3.6-4-0.4-7c7.1-6.6,13.2-18,21.1-19.4c8.4-1.5,14,11.4,21,17.7
		c7.7,6.9,14.6,14.7,22.1,21.8C654.5,322.9,654.9,324.8,651.7,327.9z"/>
	<path class="st1" d="M135.8,821.4c0,10.2-8,18.1-18,17.8c-9.4-0.3-17.4-8.5-17.5-17.8c0-9.7,8.5-18,18.3-17.8
		C128.3,803.9,135.8,811.6,135.8,821.4z"/>
</g>
</svg>
