<?xml version="1.0" encoding="utf-8"?>
<!-- Generator: Adobe Illustrator 26.1.0, SVG Export Plug-In . SVG Version: 6.00 Build 0)  -->
<svg version="1.1" id="Laag_1" xmlns="http://www.w3.org/2000/svg" xmlns:xlink="http://www.w3.org/1999/xlink" x="0px" y="0px"
	 viewBox="0 0 1035.4 1034" style="enable-background:new 0 0 1035.4 1034;" xml:space="preserve">
<style type="text/css">
	.st0{fill:#FFFFFF;}
</style>
<g>
	<path class="st0" d="M1025.6,69.4c-19.9-20.1-39.9-40.1-60-60.1c-11.8-11.7-18-12.2-31.7-2.5c-27.7,19.7-54.3,41.1-83.3,58.8
		c-27.8,17-46.1,38.9-51.9,71.1c-1,5.3-3.3,9.9-7.4,14C704.6,237.3,617.8,324,531.3,410.8c-4.7,4.7-6.9,4-11-0.3
		c-13.1-13.6-26.5-26.9-40-40.1c-10.6-10.4-19.1-10.5-29.7-0.1c-15.6,15.4-31,31-46.5,46.4c-4.4,4.4-7.4,9.4-7.8,15.9
		c-2.5,39.2-23.1,64.1-60.2,75.7c-21.2,6.6-40.2,16.7-56.1,32.6c-78.3,78.4-157.2,156.3-235,235.3c-72.1,73.2-55.2,190.1,33.7,240.4
		c14.7,8.3,31,12.1,46.8,17.5h52.6c0.8-0.6,1.5-1.5,2.3-1.6c33.6-6.3,60.8-23.6,84.7-47.6C338,911.3,411,838.1,484.6,765.4
		c20.4-20.1,35.1-42.5,43.9-70c10.8-33.9,34.9-53.3,71.2-56c7.3-0.5,13.6-2.8,18.9-8.2c15.3-15.7,31-31,46.4-46.5
		c10.2-10.4,10.2-19.2-0.1-29.7c-12.5-12.8-24.9-25.6-38-37.8c-6.3-5.8-6.9-8.9-0.3-15.4c77.2-76.7,154.6-153.2,230.6-231.1
		c21.3-21.9,43.8-39,73.8-45.3c8-1.7,13.6-6.5,18.3-13.1c28.5-40.3,57.3-80.5,86-120.7c0-3.4,0-6.7,0-10.1
		C1032.2,77.5,1029.2,73.1,1025.6,69.4z M624.7,563.3c5,5,6.8,8.3,0.2,12.8c-2.5,1.7-4.4,4.1-6.5,6.4
		c-12.1,13.1-24.9,22.7-43.9,26.8c-40.2,8.8-66.2,36.2-78.7,74.9c-7.3,22.5-19.3,40.7-36,57.2c-75,74.2-149.2,149.1-224,223.5
		c-47.5,47.2-117.9,49.2-165.2,4.7C46,946.6,34,917.8,33.8,888.1c0.2-36.3,11.9-63.9,34.5-86.6c79-79.2,158.2-158.3,237.2-237.4
		c12-12,27-18.5,42.9-23.5c33.9-10.7,58.8-31.8,73.1-64.6c2-4.6,4.7-9.5,4.8-14.2c0.4-20.7,13.7-33.1,27.2-45.8
		c12.1-11.3,11.8-11.6,23.7,0.2C526.4,465.2,575.4,514.4,624.7,563.3z M991.4,94.2c-22.4,30.7-44.4,61.7-66.4,92.7
		c-2.9,4.1-6.1,6.9-11,7.9c-31.6,6.4-54.9,24.8-77.2,47.6c-77.5,79.2-156.4,157-234.7,235.4c-2.1,2.2-3.9,4.7-6.1,7.3
		c-2.4-1.9-4-3-5.4-4.4c-12.2-12.1-24.2-24.4-36.5-36.4c-3.1-3-3.4-5.1,0-7.9c2.3-1.9,4.3-4.2,6.5-6.4
		c82.9-82.9,165.6-165.9,248.8-248.5c11.6-11.5,20.9-23.6,24-39.7c3.8-20,15.4-33.4,32.5-44.4c25.4-16.4,49.6-34.8,74-52.6
		c5.2-3.8,8.3-4.6,13.2,0.7c11.9,12.8,24.5,25.1,37.1,37.2C994.3,86.6,995.1,89.1,991.4,94.2z"/>
	<path class="st0" d="M429.6,631.1c-9.5-20.2-26.6-29.3-42.3-30.1c-23.5-0.2-37,7.6-48.9,19.5c-71.6,71.7-143.3,143.4-215,215.1
		c-3.3,3.3-6.5,6.8-9.4,10.5c-17.1,21.9-13.8,54.8,7.3,72.8c22.9,19.6,53.2,17.9,76.2-5c73.2-73,146.3-146.1,219.3-219.2
		c2.1-2.1,4.1-4.5,6-6.8C436.4,670.4,439,651.2,429.6,631.1z M390,672.7C325.7,737,261.4,801.4,197,865.7
		c-8.1,8.1-16.1,16.3-24.3,24.3c-10,9.6-21.3,10.3-29.5,2.2c-8.2-8.2-7.7-19.6,2.2-29.5c73.3-73.5,146.7-146.8,220.1-220.2
		c6.5-6.5,14.1-9.2,22.9-5.9c7.6,3,11.3,9.2,12,16.6C400.3,662,395.3,667.4,390,672.7z"/>
</g>
</svg>
