<?xml version="1.0" encoding="utf-8"?>
<!-- Generator: Adobe Illustrator 26.0.1, SVG Export Plug-In . SVG Version: 6.00 Build 0)  -->
<svg version="1.1" id="Laag_1" xmlns="http://www.w3.org/2000/svg" xmlns:xlink="http://www.w3.org/1999/xlink" x="0px" y="0px"
	 viewBox="0 0 890.3 921.78" style="enable-background:new 0 0 890.3 921.78;" xml:space="preserve">
<style type="text/css">
	.st0{fill:#5AA02D;}
	.st1{fill:#7AD83D;}
	.st2{fill:#3C6621;}
	.st3{fill:#C0E2F6;}
	.st4{fill:#2B471A;}
	.st5{fill:#F38A68;}
	.st6{fill:#AECDDF;}
	.st7{fill:#C5E8FC;}
	.st8{fill:#C26F53;}
	.st9{fill:#63B82C;}
</style>
<g>
	<path class="st0" d="M842.55,556.09c15.76,0.34,15.76,0.34,15.76,16.36c0,112.89-0.1,225.79,0.21,338.68
		c0.02,8.56-1.78,10.86-10.68,10.85c-279.05-0.27-558.11-0.27-837.16,0c-8.9,0.01-10.7-2.3-10.68-10.85
		c0.31-112.89,0.21-225.78,0.21-338.68c0-16.02,0-16.02,15.76-16.36c3.25-2.75,7.21-3.01,11.17-3.01
		c33.18,0.05,66.35-0.42,99.52,0.21c10.74-0.25,21.49-0.33,32.23,0.02c10.59-0.27,21.18-0.31,31.77,0.01
		c10.42-0.23,20.84-0.32,31.26,0.04c28.04-0.14,56.09,0.11,84.14-0.15c8.55-0.08,15.95,2.15,20.93,8.99
		c13.97,19.18,32.46,26.68,55.73,22.93c31.01-0.44,62.02-0.48,93.02-0.02c37.33-0.86,25.2,4.94,52.96-22.45
		c6.57-6.48,13.63-9.6,22.91-9.5c33.73,0.34,67.47-0.01,101.21,0.18c31.44-0.49,62.88-0.44,94.31-0.06
		c28.06-0.57,56.13-0.18,84.19-0.2C835.31,553.07,839.28,553.33,842.55,556.09z"/>
	<path class="st1" d="M667.63,126.89c42.4,0.18,84.81,0.36,127.21,0.54c0.42,0.5,1.16,0.95,1.23,1.5
		c2.65,20.67,3.79,41.34-0.63,61.95c-10.51,5.48-21.77,2.14-32.7,2.75c-44.14,0.58-88.28,0.19-132.42,0.2c-3.3,0-6.6-0.2-9.6-1.83
		c-0.51-0.39-1.36-0.78-1.41-1.26c-1.45-13.55-10.9-13.56-21.19-13.05c-8.43,0.42-16.92,0.31-25.37-0.03
		c-2.3,0.01-4.61,0.29-6.9,0.08c-11.75-1.07-23.09-1.45-25.79,14.09c-4.91,2.62-10.25,1.92-15.47,1.99
		c-30.86,0.43-61.73-0.77-92.59,0.7c-1.95,0.33-3.9,0.31-5.85-0.03c-6.59-0.91-13.21-0.54-19.82-0.54
		c-106.59-0.01-213.17-0.07-319.76-0.03c-26.04,0.01-26.04-0.01-26.04-26.51c0-9.27-0.11-18.54,0.06-27.81
		c0.08-4.26-0.27-8.71,3.08-12.17c42.4-0.18,84.81-0.36,127.21-0.54c3.28-2.8,7.29-2.9,11.26-2.9c17.51,0.01,35.02-0.35,52.53,0.17
		c24.12-0.65,48.25-0.25,72.38-0.27c88.25-0.06,176.5-0.02,264.74-0.02c3.96,0,7.93-0.12,11.89,0.29
		c17.61-0.5,35.22-0.18,52.84-0.17C660.44,123.99,664.4,124.12,667.63,126.89z"/>
	<path class="st0" d="M63.68,127.44c0.03,17.86,0.6,35.74-0.13,53.57c-0.38,9.34,3.97,9.81,11.25,9.8
		c111.11-0.16,222.21-0.16,333.32,0c6.37,0.01,13.14-2.16,19.18,1.9c1.19,4.95-2.67,7.84-4.76,11.38
		c-7.03,11.89-16.53,22.25-21.76,35.26c-0.65,11.59-0.16,23.17-0.35,34.74c-0.07,3.95,0.18,7.98-1.92,11.6
		c-4.31,4.27-9.87,3.19-15,3.14c-40.33-0.37-29.21,4.3-56.71-22.95c-6.36-6.3-13.13-9.21-22.02-8.88c-12.53,0.46-25.08,0-37.62,0.37
		c-5.61-1.07-6.29-6.29-8.18-10.23c-8.81-18.38-22-32.59-39.89-42.3c-8.34-4.53-9.5-3.78-9.63,5.45
		c-0.16,11.51,0.1,23.02-0.12,34.52c-0.08,4.16,0.47,8.78-4.31,11.26c-19.92,2.12-39.83,1.96-59.74,0.14
		c-5.33-2.53-4.55-7.56-4.63-12.03c-0.22-11.53,0.08-23.08-0.13-34.61c-0.15-8.25-1.32-9.04-8.54-5.25
		c-18.39,9.67-31.9,24.07-40.91,42.82c-2.01,4.19-2.74,9.97-9.29,10.28c-17.5-0.08-34.98-0.02-52.46-0.09
		c-4.58-0.02-9.32,0.4-13.26-2.78c-15.87-0.69-15.87-0.69-15.87-17.3c0-34.01,0.17-68.03-0.15-102.04
		c-0.06-6.43,1.62-8.42,8.17-8.23C26.7,127.51,45.19,127.33,63.68,127.44z"/>
	<path class="st2" d="M842.55,556.09c-31.87-0.01-63.75-0.03-95.62-0.04c-2.96-3.19-2.94-7.21-2.94-11.14
		c0.01-17.08-0.39-34.15,0.18-51.22c0.72-10.78-2.07-20.74-6.02-30.75c-6.59-16.7-10.06-34.17-9.95-52.25
		c0.12-19.82-0.2-39.64,0.14-59.44c-0.38-20.57,6.96-37.05,25.4-47.56c4.01-2.29,6.18-5.58,6.57-10.25c0.29-3.54,0.43-7.35,4.44-9.2
		c23.69-2.69,47.43-1.1,71.14-0.92c2.34,0.02,4.51,0.94,6.19,2.72c0.11,57.58,0.23,115.17,0.33,172.75
		C842.48,491.22,842.51,523.65,842.55,556.09z"/>
	<path class="st2" d="M127.46,556.1c-37.17,0-74.33-0.01-111.5-0.01c0.05-86.06,0.09-172.11,0.15-258.17
		c0-3.96,0.21-7.93,0.32-11.89c0.93-0.94,1.99-1.98,3.25-2.06c19.79-1.22,39.59-2.77,59.31,0.85c3.29,2.49,3.35,6.29,3.81,9.85
		c3.59,27.7,16.54,50.01,38.91,66.63c6.23,4.63,8.64,10.22,8.63,17.77c-0.08,55.25-0.02,110.51-0.09,165.76
		C130.25,548.78,130.37,552.83,127.46,556.1z"/>
	<path class="st0" d="M254.44,0.31C282.5,0.2,310.56-0.02,338.62,0c88.49,0.06,176.98,0.2,265.47,0.31
		c0.58,1.19,0.37-0.52,0.61,0.75c4.03,21.04,4.45,42.07-0.29,63.08c-4.37,3.11-9.45,2.62-14.36,2.62
		c-107.07,0.06-214.14,0.05-321.21,0c-4.91,0-9.98,0.48-14.43-2.44c-1.97-2.01-2.71-4.58-2.8-7.24
		c-0.59-16.53-0.52-33.06-0.05-49.59C251.63,4.82,252.34,2.25,254.44,0.31z"/>
	<path class="st3" d="M763.02,191c10.62-0.2,21.23-0.4,31.85-0.6c18.69-7.33,53.33,1.48,62.96,16.02
		c18.97,13.71,28.38,32.97,32.12,55.49c0.92,5.55-0.7,8.55-7.24,8.37c-13.47-0.37-26.97-0.07-40.45-0.05
		c-2.85,2.74-6.49,3.01-10.12,3.04c-20.05,0.17-40.1,0.21-60.15-0.02c-3.29-0.04-6.59-0.37-9.37-2.5c-2.7-3.32-2.76-7.34-2.79-11.28
		c-0.14-19.13-0.15-38.25,0-57.38C759.86,198.14,759.87,194.09,763.02,191z"/>
	<path class="st4" d="M254.44,0.31c0.08,21.12,0.16,42.24,0.24,63.36c1.87,2.03,2.64,4.53,2.7,7.18
		c0.42,16.31,0.48,32.63-0.04,48.94c-0.08,2.64-0.88,5.15-2.87,7.1c-21.19,0-42.39,0-63.58,0c0-34.27-0.03-68.54,0.03-102.81
		c0.03-16.86,7.2-24.06,24.01-24.08C228.1-0.01,241.27,0.2,254.44,0.31z"/>
	<path class="st4" d="M603.85,63.68c0.08-21.12,0.16-42.24,0.24-63.37c12.89-0.11,25.77-0.33,38.66-0.3
		c16,0.04,23.12,6.85,23.4,22.74c0.61,34.71,1,69.43,1.49,104.15c-21.19,0-42.39,0-63.58,0c-0.58-1.19-0.35,0.51-0.59-0.76
		C599.43,105.3,598.87,84.47,603.85,63.68z"/>
	<path class="st0" d="M857.83,206.41c-18.61-14.69-40.52-16.39-62.96-16.02c-0.01-20.98-0.02-41.97-0.03-62.95
		c19.13-0.1,38.27-0.08,57.4-0.4c4.73-0.08,6.23,1.39,6.16,6.15C858.04,157.59,857.99,182,857.83,206.41z"/>
	<path class="st4" d="M79.34,286.01c-20.97,0-41.94,0.01-62.91,0.01c-0.12-10.5-0.24-20.99-0.35-31.49
		c22.85-0.05,45.72-1.27,68.56,0.65C86.32,266.05,83.99,276.23,79.34,286.01z"/>
	<path class="st4" d="M763.02,270.36c26.41-0.05,52.82-0.09,79.23-0.14c-0.05,5.27-0.11,10.54-0.16,15.81
		c-26.27,0-52.53-0.01-78.8-0.01C758.94,280.87,759.16,275.64,763.02,270.36z"/>
	<path class="st1" d="M428.68,858.19c-117.83,0-235.66-0.1-353.5,0.19c-9.02,0.02-11.68-2.26-11.63-11.5
		c0.39-72.16,0.33-144.33,0.05-216.49c-0.03-7.93,1.69-10.83,10.29-10.79c68.51,0.35,137.03,0.24,205.54,0.09
		c5.4-0.01,9.95,1,12.99,5.49c15.77,23.34,37.84,28.01,64.94,26.97c52.22-2,104.57-0.7,156.87-0.44c6.87,0.03,12.43-1.39,16.35-7.03
		c14.86-21.36,35.1-26.21,60.59-25.49c64.16,1.8,128.41,0.76,192.62,0.4c8.62-0.05,11.21,2.03,11.16,10.96
		c-0.38,72.16-0.41,144.33,0.02,216.49c0.06,9.57-3.11,11.32-11.82,11.3C665,858.11,546.84,858.19,428.68,858.19z"/>
	<path class="st2" d="M651.87,556.05c-34.36,0.06-68.72,0.26-103.08,0.05c-6.41-0.04-11.64,1.12-15.61,6.39
		c-1.18,1.57-3.02,2.66-4.13,4.26c-12.76,18.36-30.19,25.15-52.02,21.21c-5.85-9.83-2.28-20.57-2.97-30.89
		c-1.59-20.43,1.19-39.6,11.84-57.94c8.11-13.98,3.5-30.35,3.46-45.7c-0.02-5.46-4.98-5.05-8.91-5.5c-6.97-0.8-14.65,2.2-20.72-3.73
		c-2.21-4.3-1.87-8.97-1.88-13.55c-0.05-32.89-0.06-65.79,0.01-98.68c0.01-4.89-0.47-9.94,2.5-14.34c3.25-2.83,7.28-2.9,11.22-2.9
		c22.74-0.01,45.48-0.43,68.21,0.18c10.52-0.21,21.05-0.35,31.56,0.05c10.4-0.15,20.85-0.57,31.2,0.12
		c9.36,0.63,15.03-2.12,15.92-12c1.39-2.43,3.6-2.47,6-2.13c27.17,3.88,43.79,22.04,45.93,50.2c-0.55,27.69,2.35,55.46-1.96,83.04
		c-1.58,10.12-3.8,20.18-8.01,29.56c-4.29,9.55-6.42,19.36-5.81,29.8c0.57,17.12,0.2,34.23,0.2,51.35
		C654.82,548.82,654.84,552.85,651.87,556.05z"/>
	<path class="st2" d="M381.49,587.95c-23.13,3.92-41.87-2.88-55.36-22.62c-5.41-7.92-13.04-9.49-22.33-9.31
		c-27.07,0.52-54.16,0.11-81.25,0.07c-3.14-3.58-2.79-8-2.79-12.27c-0.06-54.59-0.01-109.19-0.07-163.78
		c-0.01-7.32,1.43-13.42,7.87-18.15c23.08-16.94,36.36-39.76,39.76-68.26c0.31-2.63,0.65-5.27,2.19-7.55
		c15.76-5.39,35.31-3.65,45.74,7.31c25.04,26.31,14.37,21.01,51.1,21.53c7.27,0.1,14.54-0.15,21.8,0.12
		c3.9,0.14,8.07-0.1,10.73,3.77c1.97,4.02,1.76,8.36,1.77,12.64c0.05,33.36,0.05,66.71,0,100.07c-0.01,4.28,0.21,8.62-1.82,12.61
		c-5.33,5.6-12.31,3.44-18.68,3.76c-10.55,0.52-11.21,1-11.49,11.34c-0.14,5.26,0.51,10.58-1.12,15.73
		c-1.34,3.43-4.74,4.25-7.5,5.89c-5.68,3.38-8.36,8.3-6.95,14.83c1.34,6.23,5.93,9.07,11.92,10.01c3.52,0.55,7.24,0.34,10.3,2.72
		c6.7,7.43,9.43,16.21,9.2,26.11c-0.18,7.51,0.08,15.03-0.06,22.55C383.76,567.41,387.35,578.14,381.49,587.95z"/>
	<path class="st3" d="M270.66,286.02c-1.5,33.56-15.18,60.61-43.37,79.45c-4.99,3.33-4.62,7.31-4.62,11.87
		c-0.03,59.59-0.08,119.17-0.12,178.76c-10.54-0.07-21.07-0.13-31.61-0.2c-4.04-4.41-3.09-9.91-3.1-15.09
		c-0.09-44.25-0.04-88.5-0.06-132.75c0-4.62,0.3-9.3-1.14-13.77c-1.8-5.59-5.59-8.98-11.63-8.98c-6.04,0-9.83,3.39-11.63,8.98
		c-1.44,4.47-1.14,9.15-1.14,13.77c-0.03,44.25,0.03,88.5-0.06,132.75c-0.01,5.18,0.95,10.69-3.1,15.09
		c-10.54,0.07-21.07,0.13-31.61,0.2c-0.04-59.26-0.17-118.52-0.01-177.78c0.02-6.44-1.38-10.58-7.14-14.61
		c-26.81-18.76-39.56-45.34-40.97-77.7c0.47-10.49,2.19-20.76,5.28-30.81c10.57-27.86,29.13-47.72,58.93-59.06
		c0,20.27,0,39.21,0,58.16c3.75,5.21,1.97,11.27,2.55,16.96c0.43,4.23,1.44,8.27,3.11,12.15c10.06,20.92,40.71,21.7,51.63-0.03
		c2.63-5.72,3.24-11.77,3.23-17.97c-0.01-3.85-0.27-7.81,2.4-11.11c0-18.84,0-37.68,0-58.19c29.89,11.32,48.58,31.46,59.17,59.74
		C272.95,264.96,274.83,274.98,270.66,286.02z"/>
	<path class="st5" d="M651.87,556.05c0.06-21.11,0.12-42.23,0.18-63.34c3.41-3.42,7.85-3.17,12.11-3.19
		c23.49-0.12,46.98-0.12,70.47,0c4.26,0.02,8.7-0.23,12.11,3.19c0.06,21.11,0.12,42.23,0.18,63.34
		C715.25,556.05,683.56,556.05,651.87,556.05z"/>
	<path class="st6" d="M159.07,555.9c0.01-51.51,0.02-103.03,0.05-154.54c0.01-13.38,5.69-20.24,16.38-19.94
		c10.2,0.29,15.38,6.93,15.39,19.94c0.03,51.51,0.04,103.03,0.05,154.54C180.32,555.9,169.69,555.9,159.07,555.9z"/>
	<path class="st5" d="M381.49,587.95c0.07-10.59,0.14-21.18,0.22-31.77c3.46-3.21,7.83-3.1,12.08-3.12
		c23.65-0.11,47.29-0.11,70.94,0c4.25,0.02,8.62-0.1,12.08,3.12c0.07,10.59,0.14,21.18,0.22,31.77
		C445.18,587.95,413.34,587.95,381.49,587.95z"/>
	<path class="st6" d="M667.94,349.63c-2.05-29.81-22.22-41.31-47.81-47.35c-3.84-3.6-3.34-8.41-3.36-12.94
		c-0.13-28.63-0.12-57.26,0-85.88c0.02-4.53-0.48-9.33,3.31-12.97c47.65,0.17,95.3,0.34,142.94,0.51c0,26.45,0,52.91,0,79.36
		c0.09,5.22,0.18,10.44,0.27,15.66c1.29,10.72-2.21,17.51-12.6,23.16c-15.19,8.26-19.72,23.74-19.84,40.45
		C709.88,354.78,688.91,354.77,667.94,349.63z"/>
	<path class="st0" d="M431.22,192.69c2.22-2.85,5.39-1.97,8.24-1.97c33.58-0.01,67.15,0.04,100.73,0.08
		c2.63,1.99,3.18,4.95,3.18,7.88c0.03,17.93,1.3,35.88-0.75,53.77c-8.26,13.32-20.54,22.87-31.71,33.47
		c-1.43,1.36-3.41,2.14-5.39,2.28c-13.79,0.95-27.59,1.15-41.38-0.1c-1.65-0.15-3.08-1.1-4.15-2.45
		c-3.64-9.63-1.37-19.65-1.87-29.49c-0.29-5.61-0.04-11.25-0.42-16.85c-5.16-13.03-14.75-23.34-21.74-35.25
		C433.88,200.53,429.99,197.65,431.22,192.69z"/>
	<path class="st3" d="M620.08,190.49c0.02,37.26,0.03,74.53,0.05,111.79c-0.46,15.56-0.46,15.6-16.4,15.54
		c-10.49-0.04-20.98-0.21-31.47-0.32c-3.64-3.75-3.14-8.56-3.16-13.12c-0.1-38.71-0.1-77.42,0-116.14
		c0.01-4.57-0.48-9.38,3.15-13.13c12.42-0.11,24.89,0.41,37.25-0.52c9.06-0.68,11.79,2.68,10.48,11
		C619.74,187.18,620.04,188.85,620.08,190.49z"/>
	<path class="st7" d="M572.26,175.12c0,47.46,0,94.92,0,142.39c-10.56,0.05-21.12,0.11-31.67,0.16c-0.61-0.77-1.57-1.43-1.66-2.4
		c-1.97-20.16-3.83-40.32,1.19-60.34c0.02-21.37,0.05-42.74,0.07-64.12c0.78-16.01,0.78-16.03,17.33-15.99
		C562.44,174.83,567.35,175.01,572.26,175.12z"/>
	<path class="st7" d="M431.22,192.69c9.38,14.48,18.76,28.95,28.14,43.43c-0.5,5.13-4.78,4.97-8.07,5.11
		c-14.67,0.64-29.35,0.64-44.02,0c-3.29-0.14-7.58,0.04-8.08-5.09c9.37-14.48,18.74-28.95,28.11-43.43
		C428.61,192.71,429.92,192.7,431.22,192.69z"/>
	<path class="st6" d="M399.19,236.14c2.11,2.86,5.22,2.2,8.08,2.21c14.67,0.05,29.34,0.04,44.01,0c2.86-0.01,5.97,0.63,8.07-2.23
		c3.78,10.21,0.86,20.77,1.62,31.15c0.46,6.25,0.28,12.54,0.39,18.81c4.25,10.57,4.25,21.15,0,31.72
		c-0.15,42.35-0.3,84.69-0.45,127.04c-9.22,4.79-54.09,4.79-63.32,0c-0.15-42.35-0.3-84.69-0.45-127.04
		c-4.24-10.57-4.24-21.15,0-31.72c0.11-13.54,0.13-27.08,0.39-40.62C397.6,242.33,396.21,238.81,399.19,236.14z"/>
	<path class="st4" d="M397.16,286.08c0,10.57,0,21.15,0,31.72c-17.87,0.01-35.74-0.27-53.59,0.19c-6.59,0.17-11.55-1.64-15.5-6.73
		c-0.6-0.78-1.51-1.33-2.07-2.13c-13.65-19.18-31.86-27.43-55.32-23.11c-0.42-10.26-2.21-20.3-5.02-30.17
		c16.93-3.41,34.03-1.01,51.05-1.31c3.88-0.07,6.38,3.65,8.35,6.47c15.09,21.56,35.55,29.51,61.25,25.13
		C389.81,285.53,393.53,286.07,397.16,286.08z"/>
	<path class="st4" d="M206.46,254.29c0.15,10.82,2.3,21.92-4.37,31.8c-3.08,2.2-6.57,3.23-10.27,2.95
		c-14.64-1.08-29.64,3.13-43.93-2.96c-6.67-9.89-4.48-20.98-4.34-31.8C164.52,254.29,185.49,254.29,206.46,254.29z"/>
	<path class="st8" d="M667.94,349.63c20.97,0,41.94-0.01,62.92-0.01c0.11,19.81,0.29,39.61,0.31,59.42
		c0.02,20.05,3.51,39.46,11.68,57.75c3.79,8.49,4.98,16.92,3.9,25.92c-31.56,0-63.13,0-94.69,0c-1.08-9,0.1-17.44,3.89-25.92
		c8.16-18.29,11.66-37.7,11.69-57.74C667.67,389.24,667.83,369.44,667.94,349.63z"/>
	<path class="st2" d="M413.37,772.94c1.36-7.47-0.88-14.8-8.24-21.89c-11.47-11.05-10.09-30.29,1.38-42.01
		c11.53-11.79,30.06-13.15,42.23-3.09c13.2,10.92,18.01,31.15,6.67,42.17c-11.42,11.1-10.63,23.21-10.06,36.08
		c0.36,8.13-1.95,11.84-10.36,10.42c-0.64-0.11-1.32-0.01-1.98-0.01C413.37,794.64,413.37,794.64,413.37,772.94z"/>
	<path class="st9" d="M644.27,778.73c10.56,0,21.13,0.2,31.69-0.08c5.4-0.14,7.42,1.6,7.68,7.29c1.12,24.58,1.31,24.57-23.02,24.57
		c-16.18,0-32.35-0.18-48.52,0.09c-5.83,0.1-8.02-1.6-8.19-7.8c-0.68-24.08-0.9-24.08,23.53-24.08
		C633.05,778.73,638.66,778.73,644.27,778.73z"/>
	<path class="st9" d="M747.08,794.77c-0.29,18.4,2.49,15.63-17.78,15.68c-16.66,0.04-13.87,2.1-13.95-18.46
		c-0.06-15.86-1.68-13.11,18.22-13.22C749.26,778.68,746.86,777.35,747.08,794.77z"/>
	<path class="st8" d="M397.6,444.84c21.11,0,42.21,0,63.32,0c7.93,0.04,15.88,0.36,23.8,0.05c5.76-0.23,8.43,1.37,8.22,7.72
		c-0.4,11.89-0.27,23.81-0.05,35.71c0.1,5.34-2.16,9.87-4.94,13.78c-11.75,16.48-11.87,35.16-11.14,54.09c-31.7,0-63.4,0-95.1,0
		c-0.84-16.16,3.11-33.14-8.12-47.53c3.38-3.59,7.88-2.95,12.1-3c11.9-0.16,23.8-0.03,35.71-0.08c3.63-0.02,7.3,0.08,10.82-1.01
		c5.62-1.74,9.16-5.44,9.31-11.44c0.16-6.42-3.35-10.52-9.39-12.42c-3.51-1.1-7.19-0.97-10.83-0.98
		c-14.55-0.04-29.1,0.08-43.64-0.07c-4.21-0.05-8.71,0.59-12.08-3.03c0.04-8.16,0.33-16.33,0.03-24.48
		c-0.21-5.66,2.13-7.42,7.51-7.24C381.27,445.17,389.44,444.89,397.6,444.84z"/>
	<path class="st4" d="M461.37,317.8c0-10.57,0-21.15,0-31.72c15.19-0.09,31.43,3.15,45.29-1.19c13.97-4.37,21.53-20.61,33.47-29.97
		c0.16,20.92,0.32,41.84,0.47,62.75C514.18,317.71,487.78,317.76,461.37,317.8z"/>
	<path class="st5" d="M365.59,476.63c20.17,0.05,40.34,0.06,60.51,0.15c12.54,0.06,19.31,5.93,19.04,16.34
		c-0.26,9.92-6.87,15.36-18.97,15.42c-17.52,0.09-35.05,0.09-52.57,0.12c-1.64-0.04-3.27-0.07-4.91-0.11
		c-11.53-0.26-17.96-5.18-18.8-14.37C349.04,484.98,354.31,479.09,365.59,476.63z"/>
	<path class="st2" d="M147.89,286.09c18.07,0,36.14,0,54.21,0C187.57,307.42,162.47,307.42,147.89,286.09z"/>
</g>
<rect x="-930.45" y="48.63" class="st9" width="219.96" height="205.37"/>
<rect x="-930.45" y="294.09" class="st1" width="219.96" height="205.37"/>
<rect x="-930.45" y="532.11" class="st0" width="219.96" height="205.37"/>
<rect x="-930.45" y="755.7" class="st2" width="219.96" height="205.37"/>
</svg>
