<?xml version="1.0" encoding="utf-8"?>
<!-- Generator: Adobe Illustrator 26.1.0, SVG Export Plug-In . SVG Version: 6.00 Build 0)  -->
<svg version="1.1" id="Laag_1" xmlns="http://www.w3.org/2000/svg" xmlns:xlink="http://www.w3.org/1999/xlink" x="0px" y="0px"
	 viewBox="0 0 860.6 862.3" style="enable-background:new 0 0 860.6 862.3;" xml:space="preserve">
<style type="text/css">
	.st0{fill:#FFFFFF;}
</style>
<g>
	<path class="st0" d="M855.5,100.4c-0.2-3-0.5-5.8,1.2-8.8c6.5-11.7,5.3-15.2-6.8-20.9c-48-22.6-96-45-143.8-67.9
		c-9.7-4.7-16.3-3.4-24.3,3.8C543,130.4,403.9,254,264.9,377.7c-2.8,2.5-5.6,4.5-9.4,5.1c-16.9,2.7-30.5,11.4-42.1,23.6
		c-33.4,35.4-66.9,70.7-100.4,105.9c-5.6,5.9-10.7,12.4-17.9,16.8c-40.6,24.7-69.9,59.5-91.6,101.4c-8.8,17.1,0,22.8,11.9,27.7
		c8,3.3,16.7,3.2,25.2,1.8c9.5-1.7,19-3.8,28.5-6.1c15.9-3.8,31.4-9.5,47.6-10.8c7.5-0.6,12.7,1.7,14.3,9.5c1,4.7,2.5,9.4,3.5,14.1
		c2.9,13.6,4.9,27.5,9.5,40.7c8.8,24.8,25.6,43.2,47.6,56.9c11.3,7.1,16,16.7,15.7,29.6c-0.2,9.4,0.4,18.8,0.3,28.3
		c0,16.4,8.1,26.7,23.3,32.1c9.8,3.5,19.8,5.5,29.9,7.4c8.3,1.6,13.7-1,19.3-6.7c34.2-34.6,68.6-69,103.2-103.2
		c14.4-14.3,23.5-30.8,24.6-51.2c0.2-3.8,1.4-5.1,5.2-5.6c10.8-1.7,21.5-4,32.2-6c7.9-1.5,11.5-5.9,10.8-14.1
		c-0.9-9.1-1.1-18.2-2.4-27.2c-1.3-8.2,0.3-12.2,9.8-11.3c6.9,0.6,14-0.6,20.9-1.1c9.4-0.7,12.7-4.6,12-14.3
		c-0.8-10.6-1.5-21.2-2.6-31.8c-0.5-4.8,1-6.5,5.8-6.7c8.2-0.3,16.4-1.2,24.5-1.8c8.8-0.6,12.5-5.3,11.8-13.8
		c-0.9-10.6-1.5-21.2-2.8-31.8c-0.6-4.9,0.5-6.4,5.4-6.5c8.5-0.1,17-0.8,25.5-1.3c8.9-0.6,12.6-4.5,12.2-13.3
		c-0.5-10.9-1.3-21.9-2.6-32.7c-0.6-5.1,1.1-6.4,5.7-6.4c7.9,0,15.8-0.3,23.7-0.8c10.9-0.7,14-4.2,13.5-14.9
		c-0.3-5.8-0.8-11.5-1.4-17.3c-2.3-20.2-2.3-20.2,17.5-21.8c3.3-0.3,6.7-0.3,10-0.6c10.8-0.9,14.4-5.1,13.4-16.1
		c-0.8-9.4-1.2-18.9-2.8-28.1c-1.3-7.3,1.3-8.8,8-8.6c7.6,0.2,15.2-0.5,22.8-1.1c9.7-0.8,13-4.4,12.5-14
		c-0.6-10.6-1.5-21.2-2.9-31.8c-0.7-5,0.8-6.3,5.5-6.3c8.5-0.1,17-0.8,25.5-1.4c8.9-0.6,12.6-4.4,12.1-13.4c-0.5-10-0.7-20.1-2.5-30
		c-1.4-8,1.9-9.3,8.5-9.2c7.3,0.1,14.6-0.2,21.9-0.8c9.5-0.7,13-4.6,12.5-14.1c-0.6-10.6-1.2-21.3-2.5-31.8
		c-0.7-5.6,1.4-6.7,6.4-6.7c8.2,0,16.4-0.5,24.6-1.2c9.7-0.8,12.6-4.4,11.9-14.3c-0.5-7.9-1.3-15.8-2-23.6
		c-1.1-13.4-1.1-13.4,11.9-14.4c5.5-0.4,10.9-0.8,16.4-1c11.6-0.6,15.1-4.5,14.2-15.9C857.1,124,856.3,112.2,855.5,100.4z
		 M371.6,732.5c-34.5,34.7-69.2,69.3-103.7,104c-2.7,2.7-5.3,3.8-8.8,2.9c-0.6-0.1-1.2-0.2-1.8-0.3c-27.2-4.9-27.7-5.5-27.9-33.1
		c0-3-0.2-6.1,0-9.1c0.9-22.1-6.9-39.6-26.6-51.2c-30.7-18-41.5-47.5-46.4-80.6c-1-6.9-2.8-13.7-5.1-20.2
		c-6.1-17.8-17.4-24.8-36.2-23.4c-22.3,1.7-43,10.2-64.7,14.7c-8,1.7-16,3.6-25.9,2.1c19.5-37.1,45-67.2,79.9-88.9
		c7-4.4,13.2-9.6,18.9-15.6c35.3-37.4,70.5-74.8,106-111.9c25.1-26.2,57.9-24.7,81,3.5c10,12.2,19.1,25.2,29.4,37.2
		c18.9,22,27.7,47.9,32,76c8,51.7,11.4,103.9,14.6,156C387.2,709.2,382,722.1,371.6,732.5z M829.4,130.7c-7.3,0.1-14.6,0.6-21.9,0.9
		c-13.2,0.5-16.9,4.6-15.6,17.5c0.9,9.1,1.3,18.2,2.7,27.2c1.1,6.8-1.5,8.3-7.7,8.1c-7.6-0.2-15.2,0.3-22.8,1
		c-10.2,0.9-13.5,4.7-12.8,14.7c0.6,10,1.2,20.1,2.8,30c1,6.3-1.1,7.7-6.8,7.6c-8.2,0-16.4,0.9-24.6,1.3
		c-8.2,0.4-12.3,4.7-11.7,12.9c0.7,10.9,1.3,21.9,2.7,32.7c0.6,5-0.8,6.5-5.5,6.5c-7.6,0.1-15.2,0.7-22.8,1
		c-11.8,0.5-15.3,4.1-14.6,15.6c0.5,9.7,1,19.5,2.4,29.1c1,6.9-1.7,8.2-7.8,8.1c-7.6-0.1-15.2,0.3-22.8,1
		c-9.9,0.9-12.9,4.4-12.3,14.2c0.6,10.6,1.4,21.2,2.5,31.8c0.5,4.6-0.5,6.6-5.5,6.7c-6.1,0.1-12.1,0.9-18.2,1.3
		c-17.1,1-19.7,4.1-18,20.7c0.9,8.8,1.5,17.6,2.6,26.3c0.6,4.4-0.5,5.9-5.1,5.9c-8.2,0.1-16.4,0.8-24.6,1.3
		c-11.1,0.7-14.3,4.1-13.6,15.6c0.7,10.3,1.5,20.6,2.7,30.9c0.5,4-0.5,5.5-4.5,5.6c-8.5,0.2-17,0.8-25.5,1.3
		c-9.9,0.6-13.6,4.4-13.1,14.4c0.5,10.3,1,20.7,2.5,30.9c1,6.6-1.4,7.7-7.1,7.8c-7.6,0.1-15.2,1-22.7,1.7c-9,0.8-13,5.2-12.2,14.4
		c0.8,10,1.6,20,2.9,29.9c0.7,5.6-0.4,8.4-6.8,8.2c-7.9-0.2-15.8,0.2-23.7,0.8c-9.7,0.7-13.4,5.1-12.7,14.9c0.7,9.7,1.4,19.4,2.8,29
		c1,6.8,0,10.1-7.9,11.3c-18.1,3-18.1,3.5-19.5-14.8c-3.2-42.1-7-84.1-13.6-125.9c-4.7-29.9-15.4-56.5-34.6-79.9
		c-8.9-10.8-17.4-21.9-25.8-33c-10.8-14.3-23.1-26.7-42.1-32.5c37.9-33.7,74.4-66.2,111-98.7C497.4,200.1,594,114.2,690.4,28.2
		c4.5-4,7.8-5,13.4-2.3c40.7,19.5,81.6,38.8,122.5,57.7c5.1,2.4,7.1,4.9,7.2,10.6c0,10,0.9,20,1.9,30
		C835.9,129.3,834,130.7,829.4,130.7z"/>
	<path class="st0" d="M299.8,555c-13.6-18.8-28.7-36.4-50.2-46.6c-26.7-12.7-53.9-0.1-61.7,28.3c-4.2,15.3-1.4,29.3,7.8,42.3
		c18,25.4,32.8,52.3,40.6,82.7c2.8,11.1,5.5,22.4,9.2,33.2c7,20.5,26.1,32.8,47.1,31.3c20.7-1.5,36.5-16.3,40.8-37.8
		c1.5-7.5,2.1-15,2-22.7C334,625.5,323.7,588,299.8,555z M312,684c-3.2,12.9-10.6,20-22,20.4c-11.5,0.4-20.9-6.6-24.5-19
		c-4-13.6-7.6-27.4-11.5-41.1c-8.2-29-23.9-54.1-40.7-78.7c-4.9-7.2-6.6-14.7-4-23.2c4.5-15.2,16.9-21.1,31.2-14.3
		c13.8,6.6,23.9,17.5,33.5,28.9c25.2,30.1,39.4,69.4,39.6,108.9C313.3,672,313.5,678,312,684z"/>
</g>
</svg>
