<?xml version="1.0" encoding="utf-8"?>
<!-- Generator: Adobe Illustrator 26.2.1, SVG Export Plug-In . SVG Version: 6.00 Build 0)  -->
<svg version="1.1" id="Laag_1" xmlns="http://www.w3.org/2000/svg" fill="#fff" xmlns:xlink="http://www.w3.org/1999/xlink" x="0px" y="0px"
	 viewBox="0 0 566.9 566.9" style="enable-background:new 0 0 566.9 566.9;" xml:space="preserve">
<path d="M202.5,60.7c0-33.5,27.2-60.7,60.7-60.7h40.5c33.5,0,60.7,27.2,60.7,60.7v445.4c0,33.5-27.2,60.7-60.7,60.7h-40.5
	c-33.5,0-60.7-27.2-60.7-60.7V60.7z M0,303.7C0,270.2,27.2,243,60.7,243h40.5c33.5,0,60.7,27.2,60.7,60.7v202.5
	c0,33.5-27.2,60.7-60.7,60.7H60.7C27.2,566.9,0,539.7,0,506.2V303.7z M506.2,81c33.5,0,60.7,27.2,60.7,60.7v364.5
	c0,33.5-27.2,60.7-60.7,60.7h-40.5c-33.5,0-60.7-27.2-60.7-60.7V141.7c0-33.5,27.2-60.7,60.7-60.7H506.2z"/>
</svg>
