<?xml version="1.0" encoding="utf-8"?>
<!-- Generator: Adobe Illustrator 26.2.1, SVG Export Plug-In . SVG Version: 6.00 Build 0)  -->
<svg version="1.1" id="Laag_1" xmlns="http://www.w3.org/2000/svg" fill="#fff" xmlns:xlink="http://www.w3.org/1999/xlink" x="0px" y="0px"
	 viewBox="0 0 566.9 566.9" style="enable-background:new 0 0 566.9 566.9;" xml:space="preserve">
<path d="M28.3,162.5C11.4,152.7,0,134.4,0,113.4c0-31.3,25.4-56.7,56.7-56.7c21,0,39.3,11.4,49.1,28.3h185.3
	c9.7-16.9,28.1-28.3,49.1-28.3c31.3,0,56.7,25.4,56.7,56.7c0,21-11.4,39.3-28.3,49.1v100.3c16.9,9.7,28.3,28.1,28.3,49.1
	c0,31.3-25.4,56.7-56.7,56.7c-21,0-39.3-11.4-49.1-28.3H105.8c-9.7,16.9-28.1,28.3-49.1,28.3C25.4,368.5,0,343.1,0,311.8
	c0-21,11.4-39.3,28.3-49.1V162.5z M85,162.5v100.3c8.6,5,15.8,12.1,20.7,20.7h185.3c5-8.6,12.1-15.8,20.7-20.7V162.5
	c-8.6-5-15.8-12.1-20.7-20.7H105.8C100.8,150.3,93.6,157.5,85,162.5L85,162.5z M275.8,481.9c-9.7,16.9-28.1,28.3-49.1,28.3
	c-31.3,0-56.7-25.4-56.7-56.7c0-21,11.4-39.3,28.3-49.1v-36h56.7v36c8.6,5,15.8,12.1,20.7,20.7h185.3c5-8.6,12.1-15.8,20.7-20.7
	V304.2c-8.6-5-15.8-12.1-20.7-21.5h-40.8c-4.8-12.8-12.9-24.8-23.5-34.3V226h64.3c9.7-16.1,28.1-28.3,49.1-28.3
	c31.3,0,56.7,26.2,56.7,56.7c0,21.8-11.4,40.1-28.3,49.9v100.3c16.9,9.7,28.3,28.1,28.3,49.1c0,31.3-25.4,56.7-56.7,56.7
	c-21,0-39.3-11.4-49.1-28.3H275.8z"/>
</svg>
