<?xml version="1.0" encoding="utf-8"?>
<!-- Generator: Adobe Illustrator 26.2.1, SVG Export Plug-In . SVG Version: 6.00 Build 0)  -->
<svg version="1.1" id="Laag_1" xmlns="http://www.w3.org/2000/svg" fill="#fff" xmlns:xlink="http://www.w3.org/1999/xlink" x="0px" y="0px"
	 viewBox="0 0 566.9 566.9" style="enable-background:new 0 0 566.9 566.9;" xml:space="preserve">
<path d="M126,189c0-17.4,14.1-31.5,31.5-31.5h126c17.4,0,31.5,14.1,31.5,31.5v94.5c0,17.4-14.1,31.5-31.5,31.5h-126
	c-17.4,0-31.5-14.1-31.5-31.5V189z M283.5,346.5c34.7,0,63-28.2,63-63V252h63c17.4,0,31.5,14.1,31.5,31.5V378
	c0,17.4-14.1,31.5-31.5,31.5h-126c-17.4,0-31.5-14.1-31.5-31.5v-31.5H283.5z M31.5,149C12.7,138.2,0,117.8,0,94.5
	c0-34.8,28.2-63,63-63c23.3,0,43.7,12.7,54.5,31.5h331.9c10.8-18.8,31.2-31.5,54.5-31.5c34.7,0,63,28.2,63,63
	c0,23.3-12.7,43.7-31.5,54.5v268.9c18.8,10.8,31.5,31.2,31.5,54.5c0,34.7-28.2,63-63,63c-23.3,0-43.7-12.7-54.5-31.5H117.5
	c-10.8,18.8-31.2,31.5-54.5,31.5c-34.8,0-63-28.2-63-63c0-23.3,12.7-43.7,31.5-54.5V149z M117.5,126c-5.5,9.5-13.5,17.5-23,23v268.9
	c9.5,5.5,17.5,13.5,23,23h331.9c5.5-9.5,13.5-17.5,23-23V149c-9.5-5.5-17.5-13.5-23-23H117.5z"/>
</svg>
