<?xml version="1.0" encoding="utf-8"?>
<!-- Generator: Adobe Illustrator 26.2.1, SVG Export Plug-In . SVG Version: 6.00 Build 0)  -->
<svg version="1.1" id="Laag_1" xmlns="http://www.w3.org/2000/svg" fill="#fff" xmlns:xlink="http://www.w3.org/1999/xlink" x="0px" y="0px"
	 viewBox="0 0 566.9 566.9" style="enable-background:new 0 0 566.9 566.9;" xml:space="preserve">
<path d="M85.2,233.9c-0.1-2.4-0.2-4.8-0.2-7.2C85,148.5,148.5,85,226.8,85c52.5,0,98.3,28.6,122.9,71c13.5-9.8,29.8-14.4,47.2-14.4
	c46.9,0,85,37.3,85,85c0,10.8-2,21.1-5.7,30.6c51.7,10.5,90.7,56.2,90.7,111.1c0,62.6-50.8,113.4-113.4,113.4h-326
	C57.1,481.9,0,424.8,0,354.3C0,298.7,35.6,251.4,85.2,233.9z"/>
</svg>
