<?xml version="1.0" encoding="utf-8"?>
<!-- Generator: Adobe Illustrator 26.2.1, SVG Export Plug-In . SVG Version: 6.00 Build 0)  -->
<svg version="1.1" id="Laag_1" xmlns="http://www.w3.org/2000/svg" fill="#fff" xmlns:xlink="http://www.w3.org/1999/xlink" x="0px" y="0px"
	 viewBox="0 0 566.9 566.9" style="enable-background:new 0 0 566.9 566.9;" xml:space="preserve">
<path d="M70.9,442.9c0,9.7,7.9,17.7,17.7,17.7h442.9c19.6,0,35.4,15.8,35.4,35.4s-15.8,35.4-35.4,35.4H88.6
	C39.7,531.5,0,491.9,0,442.9v-372c0-19.6,15.9-35.4,35.4-35.4s35.4,15.9,35.4,35.4V442.9z M379.4,308.5c-13.8,13.8-36.2,13.8-50,0
	L265.7,245l-99,98.9c-13.8,13.8-36.2,13.8-50,0c-13.9-13.8-13.9-36.2,0-50l124-124c13.8-13.8,36.2-13.8,50,0l63.6,63.4L471,116.7
	c13.8-13.9,36.2-13.9,50,0c13.8,13.8,13.8,36.2,0,50L379.4,308.5z"/>
</svg>
