<?xml version="1.0" encoding="utf-8"?>
<!-- Generator: Adobe Illustrator 26.2.1, SVG Export Plug-In . SVG Version: 6.00 Build 0)  -->
<svg version="1.1" id="Laag_1" xmlns="http://www.w3.org/2000/svg" fill="#fff" xmlns:xlink="http://www.w3.org/1999/xlink" x="0px" y="0px"
	 viewBox="0 0 566.9 566.9" style="enable-background:new 0 0 566.9 566.9;" xml:space="preserve">
<path d="M0.8,76.1C0.8,33.9,34.7,0,76.4,0c38,0,69,27.7,74.9,63.5c41.3-9.6,84.9,0.8,122.1,38l-56.1,56.1
	c-25.9-25.9-53.9-20.6-70.1-4.4c-18.1,18.1-18.1,48,0,66.1l125.9,125.9l-55.7,56.1c-111-110.3-62.9-62.9-126.3-126.2
	C57.3,241.5,47,193,59.9,149.9C25.8,142.5,0.8,112.3,0.8,76.1z M164.6,223.4l56.1,56.1c12.7-12.7,113.5-113.5,126.2-126.3
	c18.1-18.1,47.6-18.1,65.7,0c16.2,16.2,21.5,44.3-4.4,70.1l55.7,56.1c39.5-39.5,48.7-85.5,36.6-128.1c36.9-5.2,65.7-36.9,65.7-75.3
	c0-42-33.9-76.1-75.7-76.1c-38.3,0-70.1,28.5-75.3,65.3c-42.8-12.5-90.7-1.9-124.4,31.8C267.5,121.1,200.7,187.4,164.6,223.4z
	 M501.6,416c10.4-41.4-1.1-86.7-33.3-118.8c-14.9-15.4,6.3,5.9-125.9-126.2L286.4,227l126.2,126.2c18.1,18.1,18.1,47.6,0,65.7
	c-16.2,16.2-44.3,21.5-70.1-4.4l-55.7,56.1c34.9,38.2,86,49.1,130,35.4c7,34.7,37.6,60.9,74.5,60.9c41.8,0,75.7-33.9,75.7-76.1
	C566.9,452.5,538.4,421.2,501.6,416L501.6,416z M394.9,348.8l-55.7-56.1C229.2,402,275.5,356.5,213.1,419
	c-18.1,18.1-47.6,18.1-65.7,0c-16.6-17-21.4-44.7,4-70.1l-55.7-56.1c-38.2,38.2-48.1,82.5-37.3,124.4C24.7,424.8,0,455.1,0,490.9
	c0,42.1,33.9,76.1,75.7,76.1c36.2,0,66.4-25.1,74.2-59.1c41.4,10.4,86.7-0.8,119.2-32.9C309.7,434.4,284.5,459.2,394.9,348.8
	L394.9,348.8z"/>
</svg>
