<?xml version="1.0" encoding="utf-8"?>
<!-- Generator: Adobe Illustrator 26.2.1, SVG Export Plug-In . SVG Version: 6.00 Build 0)  -->
<svg version="1.1" id="Laag_1" xmlns="http://www.w3.org/2000/svg" fill="#fff" xmlns:xlink="http://www.w3.org/1999/xlink" x="0px" y="0px"
	 viewBox="0 0 566.9 566.9" style="enable-background:new 0 0 566.9 566.9;" xml:space="preserve">
<path d="M478.3,70.9h-248c-9.7,0-17.7,7.9-17.7,17.7v17.7h-70.9V88.6c0-48.9,39.6-88.6,88.6-88.6h248c48.9,0,88.6,39.7,88.6,88.6
	v248c0,48.9-39.6,88.6-88.6,88.6h-17.7v-70.9h17.7c9.7,0,17.7-8,17.7-17.7v-248C496.1,78.8,488.1,70.9,478.3,70.9z M0,212.6
	c0-39.1,31.7-70.9,70.9-70.9h283.5c39.1,0,70.9,31.8,70.9,70.9v283.5c0,39.1-31.8,70.9-70.9,70.9H70.9C31.7,566.9,0,535.2,0,496.1
	V212.6z M106.3,283.5h212.6c19.6,0,35.4-15.8,35.4-35.4s-15.8-35.4-35.4-35.4H106.3c-19.6,0-35.4,15.8-35.4,35.4
	S86.7,283.5,106.3,283.5z"/>
</svg>
