<?xml version="1.0" encoding="utf-8"?>
<!-- Generator: Adobe Illustrator 26.2.1, SVG Export Plug-In . SVG Version: 6.00 Build 0)  -->
<svg version="1.1" id="Laag_1" xmlns="http://www.w3.org/2000/svg" xmlns:xlink="http://www.w3.org/1999/xlink" x="0px" y="0px"
	 viewBox="0 0 283.5 283.5" style="enable-background:new 0 0 283.5 283.5;" xml:space="preserve">
<path d="M183.7,46.4L127,244.8c-2.2,7.5-10,11.9-17.5,9.7c-7.5-2.2-11.9-10-9.7-17.5l56.7-198.4c2.2-7.5,10-11.9,17.5-9.7
	C181.5,31,185.9,38.9,183.7,46.4L183.7,46.4z M229.7,82.1l49.6,49.6c5.5,5.5,5.5,14.5,0,20l-49.6,49.6c-5.5,5.5-14.5,5.5-20,0
	s-5.5-14.5,0-20l39.6-39.6l-39.6-39.6c-5.5-5.5-5.5-14.5,0-20C215.2,76.6,224.2,76.6,229.7,82.1L229.7,82.1z M73.8,102.1l-39.6,39.6
	l39.6,39.6c5.5,5.5,5.5,14.5,0,20s-14.5,5.5-20,0L4.2,151.7c-5.5-5.5-5.5-14.5,0-20l49.6-49.6c5.5-5.5,14.5-5.5,20,0
	C79.3,87.6,79.3,96.6,73.8,102.1L73.8,102.1z" fill="white"/>
</svg>
