<?xml version="1.0" encoding="utf-8"?>
<!-- Generator: Adobe Illustrator 26.2.1, SVG Export Plug-In . SVG Version: 6.00 Build 0)  -->
<svg version="1.1" id="Laag_1" xmlns="http://www.w3.org/2000/svg" xmlns:xlink="http://www.w3.org/1999/xlink" x="0px" y="0px"
	 viewBox="0 0 283.5 283.5" style="enable-background:new 0 0 283.5 283.5;" xml:space="preserve">
<path d="M252,31.5H31.5C14.1,31.5,0,45.6,0,63v157.5C0,237.9,14.1,252,31.5,252H252c17.4,0,31.5-14.1,31.5-31.5V63
	C283.5,45.6,269.3,31.5,252,31.5z M86.6,78.7c17.4,0,31.5,14.1,31.5,31.5s-14.1,31.5-31.5,31.5s-31.5-14.1-31.5-31.5
	S69.2,78.7,86.6,78.7z M133.9,204.7H39.4c-4.4,0-7.9-3.5-7.9-7.9c0-21.8,17.6-39.4,39.4-39.4h31.5c21.7,0,39.4,17.6,39.4,39.4
	C141.7,201.2,138.2,204.7,133.9,204.7z M244.1,173.2h-63c-4.3,0-7.9-3.5-7.9-7.9s3.5-7.9,7.9-7.9h63c4.3,0,7.9,3.5,7.9,7.9
	S248.4,173.2,244.1,173.2z M244.1,141.7h-63c-4.3,0-7.9-3.5-7.9-7.9c0-4.3,3.5-7.9,7.9-7.9h63c4.3,0,7.9,3.5,7.9,7.9
	C252,138.2,248.4,141.7,244.1,141.7z M244.1,110.2h-63c-4.3,0-7.9-3.5-7.9-7.9s3.5-7.9,7.9-7.9h63c4.3,0,7.9,3.5,7.9,7.9
	S248.4,110.2,244.1,110.2z" fill="white"/>
</svg>
