<?xml version="1.0" encoding="utf-8"?>
<!-- Generator: Adobe Illustrator 26.2.1, SVG Export Plug-In . SVG Version: 6.00 Build 0)  -->
<svg version="1.1" id="Laag_1" xmlns="http://www.w3.org/2000/svg" xmlns:xlink="http://www.w3.org/1999/xlink" x="0px" y="0px"
	 viewBox="0 0 283.5 283.5" style="enable-background:new 0 0 283.5 283.5;" xml:space="preserve">
<path d="M203.7,0h-124C60.2,0,44.3,15.9,44.3,35.4V248c0,19.6,15.9,35.4,35.4,35.4h124c19.6,0,35.4-15.9,35.4-35.4V35.4
	C239.2,15.9,223.3,0,203.7,0z M141.7,265.7c-9.8,0-17.7-7.9-17.7-17.7c0-9.8,7.9-17.7,17.7-17.7c9.8,0,17.7,7.9,17.7,17.7
	C159.4,257.9,151.6,265.7,141.7,265.7z M203.7,35.4v177.2h-124V35.4H203.7z" fill="white"/>
</svg>
