<?xml version="1.0" encoding="utf-8"?>
<!-- Generator: Adobe Illustrator 26.2.1, SVG Export Plug-In . SVG Version: 6.00 Build 0)  -->
<svg version="1.1" id="Laag_1" xmlns="http://www.w3.org/2000/svg" fill="#fff" xmlns:xlink="http://www.w3.org/1999/xlink" x="0px" y="0px"
	 viewBox="0 0 566.9 566.9" style="enable-background:new 0 0 566.9 566.9;" xml:space="preserve">
<path d="M94.9,30.5c11.4,0,21.1,8.1,23.3,19.3l1.5,12.3h415.7c20.1,0,36.1,20,30.4,40.2l-53.4,189.8c-3.9,13.6-16.3,23-30.4,23
	H168.7l9.1,47.4h304.4c13.1,0,23.7,10.6,23.7,23.7s-10.6,23.7-23.7,23.7h-325c-10.5,0-20.3-8.1-22.4-19.3L75.2,77.9H23.7
	C10.6,77.9,0,67.3,0,54.2s10.6-23.7,23.7-23.7H94.9z M126.5,489c0-26.2,21.2-47.4,47.4-47.4s47.4,21.2,47.4,47.4
	s-21.2,47.4-47.4,47.4S126.5,515.2,126.5,489z M505.9,489c0,26.2-21.2,47.4-47.4,47.4s-47.4-21.2-47.4-47.4s21.2-47.4,47.4-47.4
	S505.9,462.8,505.9,489z"/>
</svg>
